<?xml version="1.0" encoding="UTF-8" standalone="no"?>
<svg
   xml:space="preserve"
   width="500"
   height="500"
   version="1.1"
   id="svg36"
   sodipodi:docname="biosoft_logo_unflow_128px_correct_texpath.svg"
   inkscape:version="1.2.2 (732a01da63, 2022-12-09)"
   xmlns:inkscape="http://www.inkscape.org/namespaces/inkscape"
   xmlns:sodipodi="http://sodipodi.sourceforge.net/DTD/sodipodi-0.dtd"
   xmlns="http://www.w3.org/2000/svg"
   xmlns:svg="http://www.w3.org/2000/svg"><defs
   id="defs40" /><sodipodi:namedview
   id="namedview38"
   pagecolor="#ffffff"
   bordercolor="#000000"
   borderopacity="0.25"
   inkscape:showpageshadow="2"
   inkscape:pageopacity="0.0"
   inkscape:pagecheckerboard="0"
   inkscape:deskcolor="#d1d1d1"
   showgrid="false"
   inkscape:zoom="2.054"
   inkscape:cx="231.49951"
   inkscape:cy="249.75657"
   inkscape:window-width="2560"
   inkscape:window-height="1377"
   inkscape:window-x="-8"
   inkscape:window-y="-8"
   inkscape:window-maximized="1"
   inkscape:current-layer="svg36" />
  <g
   fill="#f07167"
   id="g34">
    <path
   d="M250.73 16.066a234.177 234.177 0 0 0-130.1 39.79h260.663a234.177 234.177 0 0 0-130.563-39.79Z"
   id="path2" />
    <path
   fill="#f48b7b"
   d="M112.402 62.016a234.177 234.177 0 0 0-36.74 32.963h350.305a234.177 234.177 0 0 0-35.93-32.963Z"
   id="path4" />
    <path
   fill="#f7a58f"
   d="M71.246 100.234a234.177 234.177 0 0 0-22.738 32.963h404.976a234.177 234.177 0 0 0-22.982-32.963z"
   id="path6" />
    <path
   fill="#fed9b7"
   d="M45.266 139.135a234.177 234.177 0 0 0-14.688 32.963h440.887a234.177 234.177 0 0 0-14.615-32.963z"
   id="path8" />
    <path
   fill="#40c3c2"
   d="M32.537 333.64a234.177 234.177 0 0 0 15.596 32.964h405.195a234.177 234.177 0 0 0 15.596-32.963z"
   id="path10" />
    <path
   fill="#00afb9"
   d="M51.004 371.86a234.177 234.177 0 0 0 23.97 32.962h351.51a234.177 234.177 0 0 0 23.973-32.963z"
   id="path12" />
    <path
   fill="#0098b0"
   d="M80.934 410.781a234.177 234.177 0 0 0 38.513 32.963h262.567a234.177 234.177 0 0 0 38.511-32.963z"
   id="path14" />
    <path
   fill="#0081a7"
   d="M128.904 449.855A234.177 234.177 0 0 0 250.73 484.42a234.177 234.177 0 0 0 121.827-34.565z"
   id="path16" />
    <g
   aria-label="BIOSOFT"
   id="text32"
   style="font-size:106.667px;line-height:1.5;white-space:pre;fill:#f59789"><path
     d="m 53.528697,209.8071 q 6.40002,-0.16 12.640039,-0.26667 6.293353,-0.16 11.946704,-0.16 7.46669,0 13.066708,2.08001 5.600017,2.02667 8.746694,6.34668 3.146678,4.26668 3.146678,10.9867 0,3.89335 -1.81334,7.30669 -1.760006,3.41335 -4.693349,5.65335 -2.933342,2.24001 -6.506687,2.66668 v -1.70667 q 4.320014,0.21333 8.053359,2.93334 3.786677,2.72001 6.080017,7.04002 2.29334,4.26668 2.29334,9.2267 0,7.46669 -3.30667,12.2667 -3.253348,4.74668 -9.2267,7.04002 -5.973352,2.29334 -14.133378,2.29334 -6.186686,0 -12.853373,-0.16 -6.613354,-0.10666 -13.440042,-0.26666 l -0.746669,-0.74667 v -71.78689 z m 16.053383,61.76019 q 2.613342,-0.0533 4.960016,-0.0533 2.346674,-0.0533 4.053346,-0.0533 4.373347,0 6.666687,-1.6 2.346674,-1.65334 3.20001,-4.00001 0.90667,-2.40001 0.90667,-4.64002 0,-2.34667 -0.960003,-4.74668 -0.90667,-2.45334 -3.306677,-4.10668 -2.346674,-1.65334 -6.613354,-1.65334 H 63.18206 v -12.1067 h 14.080044 q 3.626678,0 5.600018,-1.28001 1.973339,-1.33333 2.773342,-3.30667 0.800002,-1.97334 0.800002,-4.05335 0,-2.13334 -0.800002,-4.05334 -0.800003,-1.92001 -2.826676,-3.14668 -1.973339,-1.28001 -5.546684,-1.28001 -1.386671,0 -3.520011,0 -2.13334,-0.0533 -4.160013,-0.10666 z"
     style="font-weight:700;font-family:Signika;-inkscape-font-specification:'Signika Bold';text-align:center;text-anchor:middle;fill:#0098b0"
     id="path269" /><path
     d="m 118.4889,210.02043 q 2.02668,-0.42667 4.48002,-0.53333 2.50667,-0.10667 4.05334,-0.10667 1.70668,0 4.05335,0.10667 2.34667,0.10666 4.48001,0.53333 v 72.85356 q -2.13334,0.37334 -4.48001,0.48 -2.34667,0.16 -4.05335,0.16 -1.54667,0 -4.05334,-0.16 -2.45334,-0.10666 -4.48002,-0.48 z"
     style="font-weight:700;font-family:Signika;-inkscape-font-specification:'Signika Bold';text-align:center;text-anchor:middle;fill:#00afb9"
     id="path271" /><path
     d="m 165.47577,246.39388 q 0,4.21335 0.42667,8.58669 0.48,4.37335 1.86667,8.10669 1.44001,3.68002 4.21335,5.97336 2.77334,2.29334 7.41335,2.29334 4.64002,0 7.36003,-2.29334 2.77334,-2.29334 4.16001,-5.97336 1.44,-3.73334 1.86667,-8.10669 0.48,-4.37334 0.48,-8.58669 0,-4.21335 -0.48,-8.53336 -0.42667,-4.37335 -1.86667,-8.05336 -1.38667,-3.73334 -4.16001,-5.97335 -2.72001,-2.29334 -7.36003,-2.29334 -4.64001,0 -7.41335,2.29334 -2.77334,2.24001 -4.21335,5.97335 -1.38667,3.68001 -1.86667,8.05336 -0.42667,4.32001 -0.42667,8.53336 z m -17.81339,0 q 0,-11.41337 3.41335,-19.94673 3.46667,-8.53336 10.5067,-13.28004 7.04002,-4.74668 17.81338,-4.74668 10.8267,0 17.86673,4.80001 7.04002,4.74668 10.45336,13.28004 3.41335,8.53336 3.41335,19.8934 0,11.4667 -3.46668,20.05339 -3.46668,8.53336 -10.5067,13.28005 -6.98669,4.74668 -17.76006,4.74668 -10.8267,0 -17.86672,-4.80002 -7.04002,-4.80001 -10.45336,-13.33337 -3.41335,-8.5867 -3.41335,-19.94673 z"
     style="font-weight:700;font-family:Signika;-inkscape-font-specification:'Signika Bold';text-align:center;text-anchor:middle;fill:#40c3c2"
     id="path273" /><path
     d="m 216.51594,276.52731 q 0.32,-3.62668 2.24001,-7.09336 1.92,-3.52001 4.37335,-5.65335 4.48001,2.66667 10.18669,4.85335 5.70669,2.13334 11.41337,2.13334 4.64002,0 6.66669,-2.24001 2.02667,-2.24001 2.02667,-4.80001 0,-1.70668 -1.12,-3.89335 -1.12,-2.24001 -5.60002,-4.10668 l -12.85337,-5.33335 q -6.61335,-2.77334 -10.93337,-7.41336 -4.32001,-4.64001 -4.32001,-12.2667 0,-6.66669 3.46668,-11.68004 3.46667,-5.01335 9.33336,-7.78669 5.92002,-2.82667 13.17337,-2.82667 7.57336,0 14.18671,1.97334 6.66669,1.97334 10.8267,4.16001 -0.21333,3.68001 -1.76,7.09336 -1.49334,3.36001 -4.00001,5.65335 -4.05335,-1.92001 -9.49337,-3.52001 -5.44001,-1.65334 -9.76003,-1.65334 -4.58668,0 -6.56002,2.08 -1.92,2.08001 -1.92,4.21335 0,2.02667 1.33333,3.62668 1.38667,1.6 4.90669,3.09334 l 13.12004,5.38668 q 5.17335,2.13334 8.74669,5.33335 3.62668,3.14668 5.49335,7.14669 1.86667,3.94668 1.86667,8.5867 0,6.45335 -3.14667,11.68003 -3.09335,5.17335 -9.33337,8.21336 -6.24002,2.98668 -15.57338,2.98668 -6.45335,0 -13.76004,-2.02668 -7.30669,-2.08 -13.22671,-5.92001 z"
     style="font-weight:700;font-family:Signika;-inkscape-font-specification:'Signika Bold';text-align:center;text-anchor:middle;fill:#fed9b7"
     id="path275" /><path
     d="m 295.98277,246.39388 q 0,4.21335 0.42667,8.58669 0.48,4.37335 1.86667,8.10669 1.44001,3.68002 4.21335,5.97336 2.77334,2.29334 7.41336,2.29334 4.64001,0 7.36002,-2.29334 2.77334,-2.29334 4.16001,-5.97336 1.44001,-3.73334 1.86668,-8.10669 0.48,-4.37334 0.48,-8.58669 0,-4.21335 -0.48,-8.53336 -0.42667,-4.37335 -1.86668,-8.05336 -1.38667,-3.73334 -4.16001,-5.97335 -2.72001,-2.29334 -7.36002,-2.29334 -4.64002,0 -7.41336,2.29334 -2.77334,2.24001 -4.21335,5.97335 -1.38667,3.68001 -1.86667,8.05336 -0.42667,4.32001 -0.42667,8.53336 z m -17.81338,0 q 0,-11.41337 3.41334,-19.94673 3.46668,-8.53336 10.5067,-13.28004 7.04002,-4.74668 17.81339,-4.74668 10.8267,0 17.86672,4.80001 7.04002,4.74668 10.45337,13.28004 3.41334,8.53336 3.41334,19.8934 0,11.4667 -3.46668,20.05339 -3.46667,8.53336 -10.5067,13.28005 -6.98669,4.74668 -17.76005,4.74668 -10.8267,0 -17.86672,-4.80002 -7.04003,-4.80001 -10.45337,-13.33337 -3.41334,-8.5867 -3.41334,-19.94673 z"
     style="font-weight:700;font-family:Signika;-inkscape-font-specification:'Signika Bold';text-align:center;text-anchor:middle;fill:#f7a58f"
     id="path277" /><path
     d="m 370.6497,282.87399 q -2.18667,0.37334 -4.37335,0.48 -2.18667,0.16 -4.00001,0.16 -1.76,0 -4.16001,-0.16 -2.40001,-0.10666 -4.58668,-0.48 v -72.21356 l 0.74667,-0.64 h 16.26671 v 5.06668 q 0,4.42669 0.0533,9.01337 0.0533,4.53334 0.0533,8.74669 z m 29.22676,-72.85356 q 0.42667,1.38667 0.58667,3.25335 0.16,1.81333 0.16,3.30667 0,4.16002 -2.29334,6.02669 -2.24001,1.86667 -6.82669,1.86667 h -13.33338 q -4.00001,0 -7.57335,-0.0533 -3.52001,-0.0533 -7.04002,-0.0533 v -14.34671 z m -6.50669,29.60009 q 0.48,1.49334 0.69334,3.52002 0.21333,2.02667 0.21333,3.41334 0,1.44 -0.21333,3.46668 -0.21334,2.02667 -0.69334,3.57334 h -20.6934 q -2.29334,0 -4.64001,-0.0533 -2.34667,-0.10667 -3.89335,-0.16 v -13.54671 q 1.54668,-0.10667 3.89335,-0.16 2.34667,-0.0533 4.64001,-0.0533 z"
     style="font-weight:700;font-family:Signika;-inkscape-font-specification:'Signika Bold';text-align:center;text-anchor:middle;fill:#f48b7b"
     id="path279" /><path
     d="m 403.44976,224.20714 q -0.37333,-1.92 -0.48,-3.73334 -0.10667,-1.86667 -0.10667,-3.30668 0,-1.49334 0.10667,-3.36001 0.10667,-1.86667 0.48,-3.78668 h 52.80017 q 0.42666,1.33334 0.64,3.14668 0.21333,1.76 0.21333,3.41334 0,4.16002 -2.18667,5.92002 -2.13334,1.70667 -6.72002,1.70667 h -3.14668 q -1.17334,0 -3.36001,-0.0533 -2.13334,-0.0533 -3.36001,-0.0533 h -17.12005 q -1.17334,0 -3.36001,0.0533 -2.18668,0.0533 -3.36001,0.0533 z m 17.76006,7.78669 q 0,-2.18667 0.0533,-3.89334 0.0533,-1.76001 0.0533,-4.00001 v -7.04003 h 16.90672 v 7.04003 q 0,2.24 0.0533,4.00001 0.0533,1.70667 0.0533,3.89334 v 50.88016 q -2.18667,0.37334 -4.48001,0.48 -2.29334,0.16 -4.05335,0.16 -1.81334,0 -4.10668,-0.16 -2.29334,-0.10666 -4.48001,-0.48 z"
     style="font-weight:700;font-family:Signika;-inkscape-font-specification:'Signika Bold';text-align:center;text-anchor:middle;fill:#f07167"
     id="path281" /></g>
  </g>
</svg>
