<svg xmlns="http://www.w3.org/2000/svg" width="500" height="500">
  <g style="display:inline;opacity:1;fill:#f07167;fill-opacity:1">
    <path d="M250.73 16.066a234.177 234.177 0 0 0-130.1 39.79h260.663a234.177 234.177 0 0 0-130.563-39.79Z" style="opacity:1;fill:#f07167;fill-opacity:1"/>
    <path d="M112.402 62.016a234.177 234.177 0 0 0-36.74 32.963h350.305a234.177 234.177 0 0 0-35.93-32.963Z" style="opacity:1;fill:#f48b7b;fill-opacity:1;stroke-width:.909513"/>
    <path d="M71.246 100.234a234.177 234.177 0 0 0-22.738 32.963h404.976a234.177 234.177 0 0 0-22.982-32.963z" style="opacity:1;fill:#f7a58f;fill-opacity:1;stroke-width:.909513"/>
    <path d="M45.266 139.135a234.177 234.177 0 0 0-14.688 32.963h440.887a234.177 234.177 0 0 0-14.615-32.963z" style="opacity:1;fill:#fed9b7;fill-opacity:1;stroke-width:.909513"/>
    <path d="M32.537 333.64a234.177 234.177 0 0 0 15.596 32.964h405.195a234.177 234.177 0 0 0 15.596-32.963z" style="opacity:1;fill:#40c3c2;fill-opacity:1;stroke-width:.909513"/>
    <path d="M51.004 371.86a234.177 234.177 0 0 0 23.97 32.962h351.51a234.177 234.177 0 0 0 23.973-32.963z" style="opacity:1;fill:#00afb9;fill-opacity:1;stroke-width:.909513"/>
    <path d="M80.934 410.781a234.177 234.177 0 0 0 38.513 32.963h262.567a234.177 234.177 0 0 0 38.511-32.963z" style="opacity:1;fill:#0098b0;fill-opacity:1;stroke-width:.909513"/>
    <path d="M128.904 449.855A234.177 234.177 0 0 0 250.73 484.42a234.177 234.177 0 0 0 121.827-34.565z" style="opacity:1;fill:#0081a7;fill-opacity:1;stroke-width:.932958"/>
    <text xml:space="preserve" x="250.756" y="282.874" style="font-size:106.667px;line-height:1.5;white-space:pre;display:inline;opacity:1;fill:#f59789;fill-opacity:1"><tspan style="font-style:normal;font-variant:normal;font-weight:700;font-stretch:normal;font-size:106.667px;font-family:Signika;-inkscape-font-specification:&quot;Signika Bold&quot;;font-variant-ligatures:normal;font-variant-caps:normal;font-variant-numeric:normal;font-variant-east-asian:normal;text-align:center;text-anchor:middle;fill:#0098b0">B</tspan><tspan style="font-style:normal;font-variant:normal;font-weight:700;font-stretch:normal;font-size:106.667px;font-family:Signika;-inkscape-font-specification:&quot;Signika Bold&quot;;font-variant-ligatures:normal;font-variant-caps:normal;font-variant-numeric:normal;font-variant-east-asian:normal;text-align:center;text-anchor:middle;fill:#00afb9">I</tspan><tspan style="font-style:normal;font-variant:normal;font-weight:700;font-stretch:normal;font-size:106.667px;font-family:Signika;-inkscape-font-specification:&quot;Signika Bold&quot;;font-variant-ligatures:normal;font-variant-caps:normal;font-variant-numeric:normal;font-variant-east-asian:normal;text-align:center;text-anchor:middle;fill:#40c3c2">O</tspan><tspan style="font-style:normal;font-variant:normal;font-weight:700;font-stretch:normal;font-size:106.667px;font-family:Signika;-inkscape-font-specification:&quot;Signika Bold&quot;;font-variant-ligatures:normal;font-variant-caps:normal;font-variant-numeric:normal;font-variant-east-asian:normal;text-align:center;text-anchor:middle;fill:#fed9b7">S</tspan><tspan style="font-style:normal;font-variant:normal;font-weight:700;font-stretch:normal;font-size:106.667px;font-family:Signika;-inkscape-font-specification:&quot;Signika Bold&quot;;font-variant-ligatures:normal;font-variant-caps:normal;font-variant-numeric:normal;font-variant-east-asian:normal;text-align:center;text-anchor:middle;fill:#f7a58f">O</tspan><tspan style="font-style:normal;font-variant:normal;font-weight:700;font-stretch:normal;font-size:106.667px;font-family:Signika;-inkscape-font-specification:&quot;Signika Bold&quot;;font-variant-ligatures:normal;font-variant-caps:normal;font-variant-numeric:normal;font-variant-east-asian:normal;text-align:center;text-anchor:middle;fill:#f48b7b">F</tspan><tspan style="font-style:normal;font-variant:normal;font-weight:700;font-stretch:normal;font-size:106.667px;font-family:Signika;-inkscape-font-specification:&quot;Signika Bold&quot;;font-variant-ligatures:normal;font-variant-caps:normal;font-variant-numeric:normal;font-variant-east-asian:normal;text-align:center;text-anchor:middle;fill:#f07167">T</tspan></text>
  </g>
</svg>
