<svg xmlns="http://www.w3.org/2000/svg" xml:space="preserve" width="128" height="128">
                <g fill="#f07167" style="transform-origin: 0 0; transform:scale(0.25)">
                    <path class="stripe" d="M250.73 16.066a234.177 234.177 0 0 0-130.1 39.79h260.663a234.177 234.177 0 0 0-130.563-39.79Z"/>
                    <path class="stripe" fill="#f48b7b" d="M112.402 62.016a234.177 234.177 0 0 0-36.74 32.963h350.305a234.177 234.177 0 0 0-35.93-32.963Z"/>
                    <path class="stripe" fill="#f7a58f" d="M71.246 100.234a234.177 234.177 0 0 0-22.738 32.963h404.976a234.177 234.177 0 0 0-22.982-32.963z"/>
                    <path class="stripe" fill="#fed9b7" d="M45.266 139.135a234.177 234.177 0 0 0-14.688 32.963h440.887a234.177 234.177 0 0 0-14.615-32.963z"/>
                    <path class="stripe" fill="#40c3c2" d="M32.537 333.64a234.177 234.177 0 0 0 15.596 32.964h405.195a234.177 234.177 0 0 0 15.596-32.963z"/>
                    <path class="stripe" fill="#00afb9" d="M51.004 371.86a234.177 234.177 0 0 0 23.97 32.962h351.51a234.177 234.177 0 0 0 23.973-32.963z"/>
                    <path class="stripe" fill="#0098b0" d="M80.934 410.781a234.177 234.177 0 0 0 38.513 32.963h262.567a234.177 234.177 0 0 0 38.511-32.963z"/>
                    <path class="stripe" fill="#0081a7" d="M128.904 449.855A234.177 234.177 0 0 0 250.73 484.42a234.177 234.177 0 0 0 121.827-34.565z"/>
                    <text xml:space="preserve" x="250.756" y="282.874" fill="#f59789" font-size="106.667" style="line-height:1.5;white-space:pre"><tspan fill="#0098b0" font-family="Signika" font-weight="700" style="-inkscape-font-specification:&quot;Signika Bold&quot;;font-variant-ligatures:normal;font-variant-caps:normal;font-variant-numeric:normal;font-variant-east-asian:normal;text-align:center" text-anchor="middle">B</tspan><tspan fill="#00afb9" font-family="Signika" font-weight="700" style="-inkscape-font-specification:&quot;Signika Bold&quot;;font-variant-ligatures:normal;font-variant-caps:normal;font-variant-numeric:normal;font-variant-east-asian:normal;text-align:center" text-anchor="middle">I</tspan><tspan fill="#40c3c2" font-family="Signika" font-weight="700" style="-inkscape-font-specification:&quot;Signika Bold&quot;;font-variant-ligatures:normal;font-variant-caps:normal;font-variant-numeric:normal;font-variant-east-asian:normal;text-align:center" text-anchor="middle">O</tspan><tspan fill="#fed9b7" font-family="Signika" font-weight="700" style="-inkscape-font-specification:&quot;Signika Bold&quot;;font-variant-ligatures:normal;font-variant-caps:normal;font-variant-numeric:normal;font-variant-east-asian:normal;text-align:center" text-anchor="middle">S</tspan><tspan fill="#f7a58f" font-family="Signika" font-weight="700" style="-inkscape-font-specification:&quot;Signika Bold&quot;;font-variant-ligatures:normal;font-variant-caps:normal;font-variant-numeric:normal;font-variant-east-asian:normal;text-align:center" text-anchor="middle">O</tspan><tspan fill="#f48b7b" font-family="Signika" font-weight="700" style="-inkscape-font-specification:&quot;Signika Bold&quot;;font-variant-ligatures:normal;font-variant-caps:normal;font-variant-numeric:normal;font-variant-east-asian:normal;text-align:center" text-anchor="middle">F</tspan><tspan fill="#f07167" font-family="Signika" font-weight="700" style="-inkscape-font-specification:&quot;Signika Bold&quot;;font-variant-ligatures:normal;font-variant-caps:normal;font-variant-numeric:normal;font-variant-east-asian:normal;text-align:center" text-anchor="middle">T</tspan></text>
                </g>
</svg>